<mxfile host="app.diagrams.net" modified="2024-04-18T06:17:20.491Z" agent="Mozilla/5.0 (Windows NT 10.0; Win64; x64) AppleWebKit/537.36 (KHTML, like Gecko) Chrome/123.0.0.0 Safari/537.36" etag="wq9gEBj00XPBMssDWYtf" version="24.2.5" type="github">
  <diagram name="Страница — 1" id="GUVwTfJ01nuj_rSySooH">
    <mxGraphModel dx="2440" dy="663" grid="1" gridSize="10" guides="1" tooltips="1" connect="1" arrows="1" fold="1" page="1" pageScale="1" pageWidth="827" pageHeight="1169" math="0" shadow="0">
      <root>
        <mxCell id="0" />
        <mxCell id="1" parent="0" />
        <mxCell id="C0o7tuhEB1ai6px6-TQF-3" style="edgeStyle=orthogonalEdgeStyle;rounded=0;orthogonalLoop=1;jettySize=auto;html=1;exitX=0;exitY=0.5;exitDx=0;exitDy=0;entryX=1;entryY=0.5;entryDx=0;entryDy=0;" edge="1" parent="1" source="C0o7tuhEB1ai6px6-TQF-1" target="C0o7tuhEB1ai6px6-TQF-2">
          <mxGeometry relative="1" as="geometry" />
        </mxCell>
        <mxCell id="C0o7tuhEB1ai6px6-TQF-5" style="edgeStyle=orthogonalEdgeStyle;rounded=0;orthogonalLoop=1;jettySize=auto;html=1;exitX=1;exitY=0.5;exitDx=0;exitDy=0;entryX=0;entryY=0.5;entryDx=0;entryDy=0;" edge="1" parent="1" source="C0o7tuhEB1ai6px6-TQF-1" target="C0o7tuhEB1ai6px6-TQF-4">
          <mxGeometry relative="1" as="geometry" />
        </mxCell>
        <mxCell id="C0o7tuhEB1ai6px6-TQF-7" style="edgeStyle=orthogonalEdgeStyle;rounded=0;orthogonalLoop=1;jettySize=auto;html=1;exitX=0.5;exitY=1;exitDx=0;exitDy=0;entryX=0.5;entryY=0;entryDx=0;entryDy=0;" edge="1" parent="1" source="C0o7tuhEB1ai6px6-TQF-1" target="C0o7tuhEB1ai6px6-TQF-6">
          <mxGeometry relative="1" as="geometry" />
        </mxCell>
        <mxCell id="C0o7tuhEB1ai6px6-TQF-1" value="Пользовательский интерфейс (UI)" style="rounded=1;whiteSpace=wrap;html=1;" vertex="1" parent="1">
          <mxGeometry x="300" y="170" width="120" height="60" as="geometry" />
        </mxCell>
        <mxCell id="C0o7tuhEB1ai6px6-TQF-2" value="Основные требования" style="swimlane;whiteSpace=wrap;html=1;" vertex="1" parent="1">
          <mxGeometry x="-70" y="100" width="200" height="200" as="geometry" />
        </mxCell>
        <mxCell id="C0o7tuhEB1ai6px6-TQF-13" value="1. функциональность&lt;div&gt;2.соответствие технологии&lt;/div&gt;&lt;div&gt;3. понятность и логичность&lt;/div&gt;&lt;div&gt;4. обеспечение высокой скорости работы с пользователем&lt;/div&gt;&lt;div&gt;5. быстрое обучение пользователя&lt;/div&gt;&lt;div&gt;6. субъективное удовлетворение пользователя&lt;/div&gt;" style="text;html=1;align=center;verticalAlign=middle;whiteSpace=wrap;rounded=0;" vertex="1" parent="C0o7tuhEB1ai6px6-TQF-2">
          <mxGeometry y="20" width="200" height="180" as="geometry" />
        </mxCell>
        <mxCell id="C0o7tuhEB1ai6px6-TQF-4" value="Требования к дизайну" style="swimlane;whiteSpace=wrap;html=1;" vertex="1" parent="1">
          <mxGeometry x="540" y="100" width="200" height="200" as="geometry" />
        </mxCell>
        <mxCell id="C0o7tuhEB1ai6px6-TQF-14" value="1. Логичность расположения&lt;div&gt;2. Логичность отрисовки&lt;/div&gt;&lt;div&gt;3. Грамотность подписей&lt;/div&gt;&lt;div&gt;4. Позитивные подписи&lt;/div&gt;&lt;div&gt;5. Заметность элементов&lt;/div&gt;&lt;div&gt;6. Четкость границ элементов&lt;/div&gt;" style="text;html=1;align=center;verticalAlign=middle;whiteSpace=wrap;rounded=0;" vertex="1" parent="C0o7tuhEB1ai6px6-TQF-4">
          <mxGeometry y="20" width="200" height="180" as="geometry" />
        </mxCell>
        <mxCell id="C0o7tuhEB1ai6px6-TQF-6" value="Приемы создания приятного интерфейса" style="swimlane;whiteSpace=wrap;html=1;" vertex="1" parent="1">
          <mxGeometry x="260" y="385" width="200" height="200" as="geometry" />
        </mxCell>
        <mxCell id="C0o7tuhEB1ai6px6-TQF-15" value="1. Метафора&lt;div&gt;2. Аффоданс&lt;/div&gt;&lt;div&gt;3. Стандарт&lt;/div&gt;" style="text;html=1;align=center;verticalAlign=middle;whiteSpace=wrap;rounded=0;" vertex="1" parent="C0o7tuhEB1ai6px6-TQF-6">
          <mxGeometry y="25" width="200" height="175" as="geometry" />
        </mxCell>
        <mxCell id="C0o7tuhEB1ai6px6-TQF-10" value="" style="endArrow=none;html=1;rounded=0;exitX=0;exitY=1;exitDx=0;exitDy=0;" edge="1" parent="1" source="C0o7tuhEB1ai6px6-TQF-1" target="C0o7tuhEB1ai6px6-TQF-11">
          <mxGeometry width="50" height="50" relative="1" as="geometry">
            <mxPoint x="110" y="440" as="sourcePoint" />
            <mxPoint x="320" y="220" as="targetPoint" />
          </mxGeometry>
        </mxCell>
        <mxCell id="C0o7tuhEB1ai6px6-TQF-11" value="1. Графическое отображение&lt;div&gt;2. Набор управляющих элементов&lt;/div&gt;&lt;div&gt;3. Технологии взаимодействия пользователя с системой&lt;/div&gt;" style="rounded=1;whiteSpace=wrap;html=1;" vertex="1" parent="1">
          <mxGeometry x="10" y="390" width="180" height="140" as="geometry" />
        </mxCell>
      </root>
    </mxGraphModel>
  </diagram>
</mxfile>
